<svg width="40" height="40" viewBox="0 0 40 40" fill="none" xmlns="http://www.w3.org/2000/svg">
<circle cx="20" cy="20" r="20" fill="white"/>
<path d="M6.236 24.14C5.21867 24.14 4.318 24.0933 3.534 24C2.75 23.9067 2.18533 23.8133 1.84 23.72V23.44L1.56 21.942C1.69067 22.0913 1.938 22.25 2.302 22.418C2.67533 22.586 3.17 22.7307 3.786 22.852C4.402 22.964 5.13467 23.02 5.984 23.02C6.74933 23.02 7.328 22.9687 7.72 22.866C8.12133 22.754 8.392 22.6047 8.532 22.418C8.68133 22.222 8.756 21.998 8.756 21.746C8.756 21.4473 8.63467 21.2093 8.392 21.032C8.14933 20.8547 7.78533 20.7147 7.3 20.612C6.824 20.5 6.23133 20.402 5.522 20.318C4.598 20.1967 3.856 20.038 3.296 19.842C2.736 19.6367 2.33 19.366 2.078 19.03C1.826 18.694 1.7 18.2693 1.7 17.756C1.7 17.3173 1.83067 16.9253 2.092 16.58C2.36267 16.2347 2.76867 15.964 3.31 15.768C3.85133 15.5627 4.542 15.46 5.382 15.46C6.35267 15.46 7.19733 15.5067 7.916 15.6C8.63467 15.6933 9.14333 15.7867 9.442 15.88V16.16L9.862 17.42C9.666 17.2987 9.36267 17.1727 8.952 17.042C8.55067 16.9113 8.06533 16.804 7.496 16.72C6.92667 16.6267 6.292 16.58 5.592 16.58C5.01333 16.58 4.55133 16.622 4.206 16.706C3.87 16.79 3.62733 16.916 3.478 17.084C3.338 17.2427 3.268 17.4387 3.268 17.672C3.268 17.98 3.38 18.2273 3.604 18.414C3.83733 18.6007 4.17333 18.7453 4.612 18.848C5.06 18.9507 5.60133 19.0393 6.236 19.114C7.244 19.226 8.04667 19.3847 8.644 19.59C9.24133 19.7953 9.67067 20.0707 9.932 20.416C10.1933 20.7613 10.324 21.2093 10.324 21.76C10.324 22.124 10.2353 22.4553 10.058 22.754C9.89 23.0433 9.63333 23.2953 9.288 23.51C8.94267 23.7153 8.51333 23.874 8 23.986C7.496 24.0887 6.908 24.14 6.236 24.14Z" fill="#FF0000"/>
<path d="M11.7248 24C11.7901 24 11.8554 23.9347 11.9208 23.804C11.9861 23.6733 12.0188 23.4587 12.0188 23.16V16.44C12.0188 16.1413 11.9861 15.9313 11.9208 15.81C11.8554 15.6793 11.7901 15.6093 11.7248 15.6H19.6068V15.88L19.8868 17.224C19.6534 17.1213 19.2428 17.014 18.6548 16.902C18.0668 16.7807 17.3574 16.72 16.5268 16.72H14.1608C13.8808 16.72 13.7128 16.7433 13.6568 16.79C13.6101 16.8273 13.5868 16.944 13.5868 17.14V18.736C13.5868 18.9413 13.6101 19.0627 13.6568 19.1C13.7128 19.1373 13.8761 19.156 14.1468 19.156H16.4568C16.9981 19.156 17.4321 19.128 17.7588 19.072C18.0948 19.0067 18.3141 18.9413 18.4168 18.876C18.3794 18.9973 18.3374 19.142 18.2908 19.31C18.2441 19.478 18.2068 19.646 18.1788 19.814C18.1508 19.982 18.1368 20.136 18.1368 20.276H14.1468C13.8761 20.276 13.7128 20.2947 13.6568 20.332C13.6101 20.36 13.5868 20.4813 13.5868 20.696V22.432C13.5868 22.6467 13.6101 22.7727 13.6568 22.81C13.7034 22.8473 13.8668 22.866 14.1468 22.866H18.2208C18.7621 22.866 19.1961 22.8053 19.5228 22.684C19.8588 22.5533 20.0781 22.4273 20.1808 22.306L19.9008 23.566V24H11.7248Z" fill="black"/>
<path d="M28.4444 23.8889C30.899 23.8889 32.8889 21.899 32.8889 19.4444C32.8889 16.9898 30.899 15 28.4444 15C25.9898 15 24 16.9898 24 19.4444C24 21.899 25.9898 23.8889 28.4444 23.8889Z" stroke="#0066FF" stroke-linecap="round" stroke-linejoin="round"/>
<path d="M34 25L31.5833 22.5833" stroke="#0066FF" stroke-linecap="round" stroke-linejoin="round"/>
</svg>
